<mxfile host="app.diagrams.net" modified="2023-03-13T12:53:30.114Z" agent="5.0 (Windows NT 10.0; Win64; x64) AppleWebKit/537.36 (KHTML, like Gecko) Chrome/110.0.0.0 Safari/537.36 Edg/110.0.1587.69" etag="JFtXU8QOxlR45sufeBK_" version="20.8.20" type="github">
  <diagram id="ZLlfLvLGAMrQiHrwSTNZ" name="第 1 页">
    <mxGraphModel dx="1945" dy="606" grid="1" gridSize="10" guides="1" tooltips="1" connect="1" arrows="1" fold="1" page="1" pageScale="1" pageWidth="827" pageHeight="1169" math="0" shadow="0">
      <root>
        <mxCell id="0" />
        <mxCell id="1" parent="0" />
        <mxCell id="GuQ06bizUJo4DjbWJBar-145" value="" style="rounded=1;whiteSpace=wrap;html=1;dashed=1;fillColor=#ffe6cc;strokeColor=#d79b00;" parent="1" vertex="1">
          <mxGeometry x="5" y="805" width="720" height="135" as="geometry" />
        </mxCell>
        <mxCell id="GuQ06bizUJo4DjbWJBar-140" value="" style="rounded=1;whiteSpace=wrap;html=1;dashed=1;fillColor=#dae8fc;strokeColor=#6c8ebf;" parent="1" vertex="1">
          <mxGeometry y="420" width="730" height="320" as="geometry" />
        </mxCell>
        <mxCell id="GuQ06bizUJo4DjbWJBar-43" value="" style="rounded=1;whiteSpace=wrap;html=1;dashed=1;fillColor=#d5e8d4;strokeColor=#82b366;" parent="1" vertex="1">
          <mxGeometry x="10" y="200" width="720" height="150" as="geometry" />
        </mxCell>
        <mxCell id="GuQ06bizUJo4DjbWJBar-42" value="" style="group" parent="1" vertex="1" connectable="0">
          <mxGeometry x="170" y="70" width="540" height="280" as="geometry" />
        </mxCell>
        <mxCell id="GuQ06bizUJo4DjbWJBar-14" value="拓扑数据" style="shape=cylinder3;whiteSpace=wrap;html=1;boundedLbl=1;backgroundOutline=1;size=15;" parent="GuQ06bizUJo4DjbWJBar-42" vertex="1">
          <mxGeometry x="30" width="60" height="80" as="geometry" />
        </mxCell>
        <mxCell id="GuQ06bizUJo4DjbWJBar-29" value="" style="group" parent="GuQ06bizUJo4DjbWJBar-42" vertex="1" connectable="0">
          <mxGeometry y="140" width="140" height="80" as="geometry" />
        </mxCell>
        <mxCell id="GuQ06bizUJo4DjbWJBar-20" value="" style="rounded=1;whiteSpace=wrap;html=1;" parent="GuQ06bizUJo4DjbWJBar-29" vertex="1">
          <mxGeometry width="120" height="60" as="geometry" />
        </mxCell>
        <mxCell id="GuQ06bizUJo4DjbWJBar-27" value="" style="rounded=1;whiteSpace=wrap;html=1;" parent="GuQ06bizUJo4DjbWJBar-29" vertex="1">
          <mxGeometry x="10" y="10" width="120" height="60" as="geometry" />
        </mxCell>
        <mxCell id="GuQ06bizUJo4DjbWJBar-28" value="vtkmDataSet" style="rounded=1;whiteSpace=wrap;html=1;" parent="GuQ06bizUJo4DjbWJBar-29" vertex="1">
          <mxGeometry x="20" y="20" width="120" height="60" as="geometry" />
        </mxCell>
        <mxCell id="GuQ06bizUJo4DjbWJBar-30" style="edgeStyle=orthogonalEdgeStyle;rounded=0;orthogonalLoop=1;jettySize=auto;html=1;entryX=0.5;entryY=0;entryDx=0;entryDy=0;" parent="GuQ06bizUJo4DjbWJBar-42" source="GuQ06bizUJo4DjbWJBar-14" target="GuQ06bizUJo4DjbWJBar-20" edge="1">
          <mxGeometry relative="1" as="geometry" />
        </mxCell>
        <mxCell id="GuQ06bizUJo4DjbWJBar-31" value="按照拓扑关系分割" style="text;html=1;align=center;verticalAlign=middle;resizable=0;points=[];autosize=1;strokeColor=none;fillColor=none;" parent="GuQ06bizUJo4DjbWJBar-42" vertex="1">
          <mxGeometry x="20" y="95" width="120" height="30" as="geometry" />
        </mxCell>
        <mxCell id="GuQ06bizUJo4DjbWJBar-32" value="" style="shape=flexArrow;endArrow=classic;startArrow=classic;html=1;rounded=0;width=16;startSize=4;" parent="GuQ06bizUJo4DjbWJBar-42" edge="1">
          <mxGeometry width="100" height="100" relative="1" as="geometry">
            <mxPoint x="150" y="185" as="sourcePoint" />
            <mxPoint x="270" y="185" as="targetPoint" />
          </mxGeometry>
        </mxCell>
        <mxCell id="GuQ06bizUJo4DjbWJBar-34" value="拓扑数据" style="shape=cylinder3;whiteSpace=wrap;html=1;boundedLbl=1;backgroundOutline=1;size=15;" parent="GuQ06bizUJo4DjbWJBar-42" vertex="1">
          <mxGeometry x="320" width="60" height="80" as="geometry" />
        </mxCell>
        <mxCell id="GuQ06bizUJo4DjbWJBar-35" value="" style="group" parent="GuQ06bizUJo4DjbWJBar-42" vertex="1" connectable="0">
          <mxGeometry x="290" y="140" width="250" height="115" as="geometry" />
        </mxCell>
        <mxCell id="GuQ06bizUJo4DjbWJBar-36" value="" style="rounded=1;whiteSpace=wrap;html=1;" parent="GuQ06bizUJo4DjbWJBar-35" vertex="1">
          <mxGeometry width="120" height="60" as="geometry" />
        </mxCell>
        <mxCell id="GuQ06bizUJo4DjbWJBar-37" value="" style="rounded=1;whiteSpace=wrap;html=1;" parent="GuQ06bizUJo4DjbWJBar-35" vertex="1">
          <mxGeometry x="10" y="10" width="120" height="60" as="geometry" />
        </mxCell>
        <mxCell id="GuQ06bizUJo4DjbWJBar-38" value="vtkmDataSet" style="rounded=1;whiteSpace=wrap;html=1;" parent="GuQ06bizUJo4DjbWJBar-35" vertex="1">
          <mxGeometry x="20" y="20" width="120" height="60" as="geometry" />
        </mxCell>
        <mxCell id="GuQ06bizUJo4DjbWJBar-33" style="edgeStyle=orthogonalEdgeStyle;rounded=0;orthogonalLoop=1;jettySize=auto;html=1;entryX=0.5;entryY=0;entryDx=0;entryDy=0;" parent="GuQ06bizUJo4DjbWJBar-42" source="GuQ06bizUJo4DjbWJBar-34" target="GuQ06bizUJo4DjbWJBar-36" edge="1">
          <mxGeometry relative="1" as="geometry" />
        </mxCell>
        <mxCell id="GuQ06bizUJo4DjbWJBar-39" value="按照拓扑关系分割" style="text;html=1;align=center;verticalAlign=middle;resizable=0;points=[];autosize=1;strokeColor=none;fillColor=none;" parent="GuQ06bizUJo4DjbWJBar-42" vertex="1">
          <mxGeometry x="310" y="95" width="120" height="30" as="geometry" />
        </mxCell>
        <mxCell id="GuQ06bizUJo4DjbWJBar-40" value="进程通信全局拓扑信息" style="text;html=1;strokeColor=none;fillColor=none;align=center;verticalAlign=middle;whiteSpace=wrap;rounded=0;" parent="GuQ06bizUJo4DjbWJBar-42" vertex="1">
          <mxGeometry x="170" y="140" width="86" height="30" as="geometry" />
        </mxCell>
        <mxCell id="GuQ06bizUJo4DjbWJBar-167" value="MPI通信域" style="rounded=1;whiteSpace=wrap;html=1;fillColor=#b0e3e6;strokeColor=#0e8088;" parent="GuQ06bizUJo4DjbWJBar-42" vertex="1">
          <mxGeometry x="113" y="10" width="200" height="60" as="geometry" />
        </mxCell>
        <mxCell id="GuQ06bizUJo4DjbWJBar-44" value="数据层" style="text;html=1;strokeColor=none;fillColor=none;align=center;verticalAlign=middle;whiteSpace=wrap;rounded=0;" parent="1" vertex="1">
          <mxGeometry x="40" y="290" width="90" height="30" as="geometry" />
        </mxCell>
        <mxCell id="GuQ06bizUJo4DjbWJBar-48" value="" style="group" parent="1" connectable="0" vertex="1">
          <mxGeometry x="-220" y="365" width="120" height="440" as="geometry" />
        </mxCell>
        <mxCell id="GuQ06bizUJo4DjbWJBar-49" value="&lt;div&gt;&lt;div&gt;Action配置文件&lt;/div&gt;&lt;/div&gt;&lt;span&gt;&lt;/span&gt;" style="swimlane;startSize=20;rounded=0;shadow=0;comic=0;labelBackgroundColor=#FFFFFF;fillColor=#ffe6cc;html=1;strokeColor=#d79b00;" parent="GuQ06bizUJo4DjbWJBar-48" vertex="1">
          <mxGeometry width="120" height="440" as="geometry" />
        </mxCell>
        <mxCell id="GuQ06bizUJo4DjbWJBar-50" value="&lt;meta charset=&quot;utf-8&quot;&gt;&lt;meta&gt;&lt;meta&gt;&lt;div&gt;&lt;div&gt;Triggers&lt;/div&gt;&lt;/div&gt;&lt;span&gt;&lt;/span&gt;" style="rounded=1;whiteSpace=wrap;html=1;shadow=0;comic=0;labelBackgroundColor=#FFFFFF;fillColor=#FFFFFF;gradientColor=#ffffff;" parent="GuQ06bizUJo4DjbWJBar-49" vertex="1">
          <mxGeometry x="10" y="130" width="100" height="40" as="geometry" />
        </mxCell>
        <mxCell id="GuQ06bizUJo4DjbWJBar-51" value="&lt;meta charset=&quot;utf-8&quot;&gt;&lt;meta&gt;&lt;meta&gt;&lt;div&gt;&lt;div&gt;Queries&lt;/div&gt;&lt;/div&gt;&lt;span&gt;&lt;/span&gt;" style="rounded=1;whiteSpace=wrap;html=1;shadow=0;comic=0;labelBackgroundColor=#FFFFFF;fillColor=#FFFFFF;gradientColor=#ffffff;" parent="GuQ06bizUJo4DjbWJBar-49" vertex="1">
          <mxGeometry x="10" y="60" width="100" height="40" as="geometry" />
        </mxCell>
        <mxCell id="GuQ06bizUJo4DjbWJBar-52" value="&lt;meta charset=&quot;utf-8&quot;&gt;&lt;meta&gt;&lt;meta&gt;&lt;div&gt;&lt;div&gt;Pipelines&lt;/div&gt;&lt;/div&gt;&lt;span&gt;&lt;/span&gt;" style="rounded=1;whiteSpace=wrap;html=1;shadow=0;comic=0;labelBackgroundColor=#FFFFFF;fillColor=#FFFFFF;gradientColor=#ffffff;" parent="GuQ06bizUJo4DjbWJBar-49" vertex="1">
          <mxGeometry x="10" y="210" width="100" height="40" as="geometry" />
        </mxCell>
        <mxCell id="GuQ06bizUJo4DjbWJBar-53" value="&lt;meta charset=&quot;utf-8&quot;&gt;&lt;meta&gt;&lt;meta&gt;&lt;div&gt;&lt;div&gt;Scenes&lt;/div&gt;&lt;/div&gt;&lt;span&gt;&lt;/span&gt;" style="rounded=1;whiteSpace=wrap;html=1;shadow=0;comic=0;labelBackgroundColor=#FFFFFF;fillColor=#FFFFFF;gradientColor=#ffffff;" parent="GuQ06bizUJo4DjbWJBar-49" vertex="1">
          <mxGeometry x="10" y="280" width="100" height="40" as="geometry" />
        </mxCell>
        <mxCell id="GuQ06bizUJo4DjbWJBar-54" value="&lt;meta charset=&quot;utf-8&quot;&gt;&lt;meta&gt;&lt;meta&gt;&lt;div&gt;&lt;div&gt;Extracts&lt;/div&gt;&lt;/div&gt;&lt;span&gt;&lt;/span&gt;" style="rounded=1;whiteSpace=wrap;html=1;shadow=0;comic=0;labelBackgroundColor=#FFFFFF;fillColor=#FFFFFF;gradientColor=#ffffff;" parent="GuQ06bizUJo4DjbWJBar-49" vertex="1">
          <mxGeometry x="10" y="350" width="100" height="40" as="geometry" />
        </mxCell>
        <mxCell id="GuQ06bizUJo4DjbWJBar-55" value="" style="group" parent="1" connectable="0" vertex="1">
          <mxGeometry x="120" y="450" width="750" height="290" as="geometry" />
        </mxCell>
        <mxCell id="GuQ06bizUJo4DjbWJBar-141" value="" style="group" parent="GuQ06bizUJo4DjbWJBar-55" vertex="1" connectable="0">
          <mxGeometry width="250" height="230" as="geometry" />
        </mxCell>
        <mxCell id="GuQ06bizUJo4DjbWJBar-56" value="&lt;meta /&gt;&lt;meta /&gt;&lt;meta /&gt;&lt;div&gt;&lt;div&gt;Triggers-Condition&lt;/div&gt;&lt;/div&gt;&lt;span&gt;&lt;/span&gt;" style="rounded=1;whiteSpace=wrap;html=1;shadow=0;comic=0;labelBackgroundColor=#FFFFFF;fillColor=#FFFFFF;gradientColor=#ffffff;" parent="GuQ06bizUJo4DjbWJBar-141" vertex="1">
          <mxGeometry x="178.81777625257374" y="108.94736842105262" width="53.19148936170213" height="24.210526315789473" as="geometry" />
        </mxCell>
        <mxCell id="GuQ06bizUJo4DjbWJBar-57" value="&lt;meta charset=&quot;utf-8&quot;&gt;&lt;meta&gt;&lt;meta&gt;&lt;div&gt;&lt;div&gt;Queries&lt;/div&gt;&lt;/div&gt;&lt;span&gt;&lt;/span&gt;" style="rounded=1;whiteSpace=wrap;html=1;shadow=0;comic=0;labelBackgroundColor=#FFFFFF;fillColor=#FFFFFF;gradientColor=#ffffff;" parent="GuQ06bizUJo4DjbWJBar-141" vertex="1">
          <mxGeometry x="35.20075497597805" y="151.31578947368422" width="53.19148936170213" height="24.210526315789473" as="geometry" />
        </mxCell>
        <mxCell id="GuQ06bizUJo4DjbWJBar-58" style="edgeStyle=orthogonalEdgeStyle;curved=1;orthogonalLoop=1;jettySize=auto;html=1;entryX=0;entryY=0.75;entryDx=0;entryDy=0;dashed=1;strokeWidth=1;exitX=0;exitY=0.5;exitDx=0;exitDy=0;" parent="GuQ06bizUJo4DjbWJBar-141" source="GuQ06bizUJo4DjbWJBar-59" target="GuQ06bizUJo4DjbWJBar-57" edge="1">
          <mxGeometry relative="1" as="geometry" />
        </mxCell>
        <mxCell id="GuQ06bizUJo4DjbWJBar-59" value="&lt;meta /&gt;&lt;meta /&gt;&lt;meta /&gt;&lt;div&gt;&lt;div&gt;Triggers-Action&lt;/div&gt;&lt;/div&gt;&lt;span&gt;&lt;/span&gt;" style="rounded=1;whiteSpace=wrap;html=1;shadow=0;comic=0;labelBackgroundColor=#FFFFFF;fillColor=none;gradientColor=none;glass=0;perimeterSpacing=1;strokeColor=#000000;" parent="GuQ06bizUJo4DjbWJBar-141" vertex="1">
          <mxGeometry x="24.559025394646532" y="71.12217785843917" width="53.19148936170213" height="21.18421052631579" as="geometry" />
        </mxCell>
        <mxCell id="GuQ06bizUJo4DjbWJBar-60" style="edgeStyle=orthogonalEdgeStyle;curved=1;orthogonalLoop=1;jettySize=auto;html=1;entryX=1;entryY=0.5;entryDx=0;entryDy=0;strokeWidth=3;startArrow=none;startFill=0;exitX=0.5;exitY=1;exitDx=0;exitDy=0;dashed=1;dashPattern=1 4;" parent="GuQ06bizUJo4DjbWJBar-141" source="GuQ06bizUJo4DjbWJBar-62" target="GuQ06bizUJo4DjbWJBar-57" edge="1">
          <mxGeometry relative="1" as="geometry" />
        </mxCell>
        <mxCell id="GuQ06bizUJo4DjbWJBar-61" style="edgeStyle=orthogonalEdgeStyle;curved=1;orthogonalLoop=1;jettySize=auto;html=1;entryX=0.75;entryY=1;entryDx=0;entryDy=0;startArrow=none;startFill=0;strokeWidth=1;" parent="GuQ06bizUJo4DjbWJBar-141" source="GuQ06bizUJo4DjbWJBar-62" target="GuQ06bizUJo4DjbWJBar-56" edge="1">
          <mxGeometry relative="1" as="geometry" />
        </mxCell>
        <mxCell id="GuQ06bizUJo4DjbWJBar-62" value="&lt;meta charset=&quot;utf-8&quot;&gt;&lt;meta&gt;&lt;meta&gt;&lt;div&gt;&lt;div&gt;Pipelines&lt;/div&gt;&lt;/div&gt;&lt;span&gt;&lt;/span&gt;" style="rounded=1;whiteSpace=wrap;html=1;shadow=0;comic=0;labelBackgroundColor=#FFFFFF;fillColor=#FFFFFF;gradientColor=#ffffff;" parent="GuQ06bizUJo4DjbWJBar-141" vertex="1">
          <mxGeometry x="157.54118050789293" y="151.31578947368422" width="60.63829787234043" height="24.210526315789473" as="geometry" />
        </mxCell>
        <mxCell id="GuQ06bizUJo4DjbWJBar-63" style="edgeStyle=orthogonalEdgeStyle;curved=1;orthogonalLoop=1;jettySize=auto;html=1;entryX=0;entryY=0.5;entryDx=0;entryDy=0;" parent="GuQ06bizUJo4DjbWJBar-141" source="GuQ06bizUJo4DjbWJBar-57" target="GuQ06bizUJo4DjbWJBar-62" edge="1">
          <mxGeometry relative="1" as="geometry" />
        </mxCell>
        <mxCell id="GuQ06bizUJo4DjbWJBar-64" value="&lt;meta charset=&quot;utf-8&quot;&gt;&lt;meta&gt;&lt;meta&gt;&lt;div&gt;&lt;div&gt;Scenes&lt;/div&gt;&lt;/div&gt;&lt;span&gt;&lt;/span&gt;" style="rounded=1;whiteSpace=wrap;html=1;shadow=0;comic=0;labelBackgroundColor=#FFFFFF;fillColor=#FFFFFF;gradientColor=#ffffff;" parent="GuQ06bizUJo4DjbWJBar-141" vertex="1">
          <mxGeometry x="35.20075497597805" y="108.94736842105262" width="53.19148936170213" height="24.210526315789473" as="geometry" />
        </mxCell>
        <mxCell id="GuQ06bizUJo4DjbWJBar-65" style="edgeStyle=orthogonalEdgeStyle;curved=1;orthogonalLoop=1;jettySize=auto;html=1;entryX=0.5;entryY=1;entryDx=0;entryDy=0;" parent="GuQ06bizUJo4DjbWJBar-141" source="GuQ06bizUJo4DjbWJBar-57" target="GuQ06bizUJo4DjbWJBar-64" edge="1">
          <mxGeometry relative="1" as="geometry" />
        </mxCell>
        <mxCell id="GuQ06bizUJo4DjbWJBar-66" style="edgeStyle=orthogonalEdgeStyle;curved=1;orthogonalLoop=1;jettySize=auto;html=1;entryX=0.5;entryY=0;entryDx=0;entryDy=0;dashed=1;strokeWidth=1;" parent="GuQ06bizUJo4DjbWJBar-141" source="GuQ06bizUJo4DjbWJBar-59" target="GuQ06bizUJo4DjbWJBar-64" edge="1">
          <mxGeometry relative="1" as="geometry" />
        </mxCell>
        <mxCell id="GuQ06bizUJo4DjbWJBar-67" style="edgeStyle=orthogonalEdgeStyle;curved=1;orthogonalLoop=1;jettySize=auto;html=1;entryX=1;entryY=0.5;entryDx=0;entryDy=0;dashed=1;dashPattern=1 4;startArrow=none;startFill=0;strokeWidth=3;" parent="GuQ06bizUJo4DjbWJBar-141" source="GuQ06bizUJo4DjbWJBar-62" target="GuQ06bizUJo4DjbWJBar-64" edge="1">
          <mxGeometry relative="1" as="geometry" />
        </mxCell>
        <mxCell id="GuQ06bizUJo4DjbWJBar-68" value="&lt;meta charset=&quot;utf-8&quot;&gt;&lt;meta&gt;&lt;meta&gt;&lt;div&gt;&lt;div&gt;Extracts&lt;/div&gt;&lt;/div&gt;&lt;span&gt;&lt;/span&gt;" style="rounded=1;whiteSpace=wrap;html=1;shadow=0;comic=0;labelBackgroundColor=#FFFFFF;fillColor=#FFFFFF;gradientColor=#ffffff;" parent="GuQ06bizUJo4DjbWJBar-141" vertex="1">
          <mxGeometry x="178.81777625257374" y="69.60526315789477" width="53.19148936170213" height="24.210526315789473" as="geometry" />
        </mxCell>
        <mxCell id="GuQ06bizUJo4DjbWJBar-69" style="edgeStyle=orthogonalEdgeStyle;orthogonalLoop=1;jettySize=auto;html=1;entryX=1;entryY=0.5;entryDx=0;entryDy=0;curved=1;exitX=1;exitY=1;exitDx=0;exitDy=0;" parent="GuQ06bizUJo4DjbWJBar-141" source="GuQ06bizUJo4DjbWJBar-57" target="GuQ06bizUJo4DjbWJBar-68" edge="1">
          <mxGeometry relative="1" as="geometry">
            <mxPoint x="99.03054221002061" y="202.76315789473682" as="sourcePoint" />
            <mxPoint x="242.6475634866163" y="121.05263157894738" as="targetPoint" />
            <Array as="points">
              <mxPoint x="88.39224433768015" y="202.76315789473682" />
              <mxPoint x="247.9667124227866" y="202.76315789473682" />
              <mxPoint x="247.9667124227866" y="81.71052631578944" />
            </Array>
          </mxGeometry>
        </mxCell>
        <mxCell id="GuQ06bizUJo4DjbWJBar-70" style="orthogonalLoop=1;jettySize=auto;html=1;entryX=1;entryY=0.25;entryDx=0;entryDy=0;exitX=0.5;exitY=1;exitDx=0;exitDy=0;" parent="GuQ06bizUJo4DjbWJBar-141" source="GuQ06bizUJo4DjbWJBar-73" target="GuQ06bizUJo4DjbWJBar-64" edge="1">
          <mxGeometry relative="1" as="geometry" />
        </mxCell>
        <mxCell id="GuQ06bizUJo4DjbWJBar-71" style="orthogonalLoop=1;jettySize=auto;html=1;entryX=0;entryY=0;entryDx=0;entryDy=0;exitX=0.5;exitY=1;exitDx=0;exitDy=0;" parent="GuQ06bizUJo4DjbWJBar-141" source="GuQ06bizUJo4DjbWJBar-73" target="GuQ06bizUJo4DjbWJBar-62" edge="1">
          <mxGeometry relative="1" as="geometry" />
        </mxCell>
        <mxCell id="GuQ06bizUJo4DjbWJBar-72" style="orthogonalLoop=1;jettySize=auto;html=1;entryX=0.92;entryY=0.025;entryDx=0;entryDy=0;entryPerimeter=0;exitX=0.5;exitY=1;exitDx=0;exitDy=0;" parent="GuQ06bizUJo4DjbWJBar-141" source="GuQ06bizUJo4DjbWJBar-73" target="GuQ06bizUJo4DjbWJBar-57" edge="1">
          <mxGeometry relative="1" as="geometry" />
        </mxCell>
        <mxCell id="GuQ06bizUJo4DjbWJBar-73" value="&lt;meta /&gt;&lt;meta /&gt;&lt;meta /&gt;&lt;div&gt;&lt;div&gt;Data&lt;/div&gt;&lt;/div&gt;&lt;span&gt;&lt;/span&gt;" style="rounded=1;whiteSpace=wrap;html=1;shadow=0;comic=0;labelBackgroundColor=#FFFFFF;fillColor=#FFFFFF;gradientColor=#ffffff;" parent="GuQ06bizUJo4DjbWJBar-141" vertex="1">
          <mxGeometry x="104.34969114619078" y="48.42105263157897" width="53.19148936170213" height="24.210526315789473" as="geometry" />
        </mxCell>
        <mxCell id="GuQ06bizUJo4DjbWJBar-74" style="edgeStyle=orthogonalEdgeStyle;curved=1;orthogonalLoop=1;jettySize=auto;html=1;entryX=0.5;entryY=0;entryDx=0;entryDy=0;dashed=1;strokeWidth=1;" parent="GuQ06bizUJo4DjbWJBar-141" source="GuQ06bizUJo4DjbWJBar-59" target="GuQ06bizUJo4DjbWJBar-68" edge="1">
          <mxGeometry relative="1" as="geometry">
            <Array as="points">
              <mxPoint x="56.47735072065887" y="30.26315789473682" />
              <mxPoint x="136.2645847632121" y="30.26315789473682" />
              <mxPoint x="136.2645847632121" y="24.21052631578944" />
              <mxPoint x="205.41352093342482" y="24.21052631578944" />
            </Array>
          </mxGeometry>
        </mxCell>
        <mxCell id="GuQ06bizUJo4DjbWJBar-75" style="edgeStyle=orthogonalEdgeStyle;curved=1;orthogonalLoop=1;jettySize=auto;html=1;entryX=0.75;entryY=1;entryDx=0;entryDy=0;exitX=0.43;exitY=1.05;exitDx=0;exitDy=0;exitPerimeter=0;" parent="GuQ06bizUJo4DjbWJBar-141" source="GuQ06bizUJo4DjbWJBar-57" target="GuQ06bizUJo4DjbWJBar-57" edge="1">
          <mxGeometry relative="1" as="geometry">
            <Array as="points">
              <mxPoint x="58.073095401509946" y="187.6315789473684" />
              <mxPoint x="75.09437199725461" y="187.6315789473684" />
            </Array>
          </mxGeometry>
        </mxCell>
        <mxCell id="GuQ06bizUJo4DjbWJBar-76" style="edgeStyle=orthogonalEdgeStyle;curved=1;orthogonalLoop=1;jettySize=auto;html=1;entryX=0;entryY=0.25;entryDx=0;entryDy=0;dashed=1;dashPattern=1 4;startArrow=none;startFill=0;strokeWidth=3;" parent="GuQ06bizUJo4DjbWJBar-141" source="GuQ06bizUJo4DjbWJBar-62" target="GuQ06bizUJo4DjbWJBar-68" edge="1">
          <mxGeometry relative="1" as="geometry">
            <Array as="points">
              <mxPoint x="173.4986273164036" y="122.8684210526316" />
              <mxPoint x="157.54118050789293" y="122.8684210526316" />
              <mxPoint x="157.54118050789293" y="75.65789473684214" />
            </Array>
          </mxGeometry>
        </mxCell>
        <mxCell id="GuQ06bizUJo4DjbWJBar-77" style="edgeStyle=orthogonalEdgeStyle;curved=1;orthogonalLoop=1;jettySize=auto;html=1;entryX=0.904;entryY=1.063;entryDx=0;entryDy=0;entryPerimeter=0;dashed=1;dashPattern=1 4;startArrow=none;startFill=0;strokeWidth=3;" parent="GuQ06bizUJo4DjbWJBar-141" source="GuQ06bizUJo4DjbWJBar-62" target="GuQ06bizUJo4DjbWJBar-62" edge="1">
          <mxGeometry relative="1" as="geometry">
            <Array as="points">
              <mxPoint x="187.86032944406313" y="187.6315789473684" />
              <mxPoint x="212.32841455044607" y="187.6315789473684" />
            </Array>
          </mxGeometry>
        </mxCell>
        <mxCell id="GuQ06bizUJo4DjbWJBar-78" value="" style="rounded=1;arcSize=10;dashed=1;strokeColor=#000000;fillColor=none;gradientColor=none;dashPattern=8 3 1 3;strokeWidth=2;" parent="GuQ06bizUJo4DjbWJBar-141" vertex="1">
          <mxGeometry width="250" height="230" as="geometry" />
        </mxCell>
        <mxCell id="GuQ06bizUJo4DjbWJBar-79" value="Graph" style="text;html=1;strokeColor=none;fillColor=none;align=center;verticalAlign=middle;whiteSpace=wrap;rounded=0;" parent="GuQ06bizUJo4DjbWJBar-141" vertex="1">
          <mxGeometry x="24.562457103637588" y="199.73684210526318" width="21.27659574468085" height="12.105263157894736" as="geometry" />
        </mxCell>
        <mxCell id="GuQ06bizUJo4DjbWJBar-107" value="" style="endArrow=classic;html=1;" parent="1" edge="1">
          <mxGeometry width="50" height="50" relative="1" as="geometry">
            <mxPoint x="750" y="690" as="sourcePoint" />
            <mxPoint x="830" y="690" as="targetPoint" />
          </mxGeometry>
        </mxCell>
        <mxCell id="GuQ06bizUJo4DjbWJBar-108" value="" style="endArrow=classic;html=1;dashed=1;" parent="1" edge="1">
          <mxGeometry width="50" height="50" relative="1" as="geometry">
            <mxPoint x="750" y="720" as="sourcePoint" />
            <mxPoint x="830" y="720" as="targetPoint" />
          </mxGeometry>
        </mxCell>
        <mxCell id="GuQ06bizUJo4DjbWJBar-109" value="" style="endArrow=classic;html=1;dashed=1;dashPattern=1 1;strokeWidth=3;" parent="1" edge="1">
          <mxGeometry width="50" height="50" relative="1" as="geometry">
            <mxPoint x="750" y="750" as="sourcePoint" />
            <mxPoint x="830" y="750" as="targetPoint" />
          </mxGeometry>
        </mxCell>
        <mxCell id="GuQ06bizUJo4DjbWJBar-110" value="&lt;div&gt;&lt;/div&gt;&lt;div style&gt;一个动作可以作为另一个动作的输入&lt;/div&gt;" style="text;html=1;strokeColor=none;fillColor=none;align=center;verticalAlign=middle;whiteSpace=wrap;rounded=0;glass=0;comic=0;" parent="1" vertex="1">
          <mxGeometry x="858" y="680" width="202" height="20" as="geometry" />
        </mxCell>
        <mxCell id="GuQ06bizUJo4DjbWJBar-111" value="&lt;meta charset=&quot;utf-8&quot;&gt;&lt;meta&gt;&lt;div&gt;&lt;/div&gt;&lt;div style=&quot;&quot;&gt;一个动作可以产生另一个动作&lt;/div&gt;" style="text;html=1;strokeColor=none;fillColor=none;align=center;verticalAlign=middle;whiteSpace=wrap;rounded=0;glass=0;comic=0;" parent="1" vertex="1">
          <mxGeometry x="828" y="710" width="232" height="20" as="geometry" />
        </mxCell>
        <mxCell id="GuQ06bizUJo4DjbWJBar-112" value="&lt;meta charset=&quot;utf-8&quot;&gt;&lt;meta&gt;&lt;div&gt;&lt;/div&gt;&lt;div style=&quot;&quot;&gt;一个动作的输出可以为另一个动作设置参数&lt;/div&gt;" style="text;html=1;strokeColor=none;fillColor=none;align=center;verticalAlign=middle;whiteSpace=wrap;rounded=0;glass=0;comic=0;" parent="1" vertex="1">
          <mxGeometry x="858" y="740" width="232" height="20" as="geometry" />
        </mxCell>
        <mxCell id="GuQ06bizUJo4DjbWJBar-115" value="" style="group" parent="1" connectable="0" vertex="1">
          <mxGeometry x="414" y="450" width="250" height="230" as="geometry" />
        </mxCell>
        <mxCell id="GuQ06bizUJo4DjbWJBar-116" value="&lt;meta /&gt;&lt;meta /&gt;&lt;meta /&gt;&lt;div&gt;&lt;div&gt;Triggers-Condition&lt;/div&gt;&lt;/div&gt;&lt;span&gt;&lt;/span&gt;" style="rounded=1;whiteSpace=wrap;html=1;shadow=0;comic=0;labelBackgroundColor=#FFFFFF;fillColor=#FFFFFF;gradientColor=#ffffff;" parent="GuQ06bizUJo4DjbWJBar-115" vertex="1">
          <mxGeometry x="178.81777625257374" y="108.94736842105262" width="53.19148936170213" height="24.210526315789473" as="geometry" />
        </mxCell>
        <mxCell id="GuQ06bizUJo4DjbWJBar-117" value="&lt;meta charset=&quot;utf-8&quot;&gt;&lt;meta&gt;&lt;meta&gt;&lt;div&gt;&lt;div&gt;Queries&lt;/div&gt;&lt;/div&gt;&lt;span&gt;&lt;/span&gt;" style="rounded=1;whiteSpace=wrap;html=1;shadow=0;comic=0;labelBackgroundColor=#FFFFFF;fillColor=#FFFFFF;gradientColor=#ffffff;" parent="GuQ06bizUJo4DjbWJBar-115" vertex="1">
          <mxGeometry x="35.20075497597805" y="151.31578947368422" width="53.19148936170213" height="24.210526315789473" as="geometry" />
        </mxCell>
        <mxCell id="GuQ06bizUJo4DjbWJBar-118" style="edgeStyle=orthogonalEdgeStyle;curved=1;orthogonalLoop=1;jettySize=auto;html=1;entryX=0;entryY=0.75;entryDx=0;entryDy=0;dashed=1;strokeWidth=1;exitX=0;exitY=0.5;exitDx=0;exitDy=0;" parent="GuQ06bizUJo4DjbWJBar-115" source="GuQ06bizUJo4DjbWJBar-119" target="GuQ06bizUJo4DjbWJBar-117" edge="1">
          <mxGeometry relative="1" as="geometry" />
        </mxCell>
        <mxCell id="GuQ06bizUJo4DjbWJBar-119" value="&lt;meta /&gt;&lt;meta /&gt;&lt;meta /&gt;&lt;div&gt;&lt;div&gt;Triggers-Action&lt;/div&gt;&lt;/div&gt;&lt;span&gt;&lt;/span&gt;" style="rounded=1;whiteSpace=wrap;html=1;shadow=0;comic=0;labelBackgroundColor=#FFFFFF;fillColor=none;gradientColor=none;glass=0;perimeterSpacing=1;strokeColor=#000000;" parent="GuQ06bizUJo4DjbWJBar-115" vertex="1">
          <mxGeometry x="24.559025394646532" y="71.12217785843917" width="53.19148936170213" height="21.18421052631579" as="geometry" />
        </mxCell>
        <mxCell id="GuQ06bizUJo4DjbWJBar-120" style="edgeStyle=orthogonalEdgeStyle;curved=1;orthogonalLoop=1;jettySize=auto;html=1;entryX=1;entryY=0.5;entryDx=0;entryDy=0;strokeWidth=3;startArrow=none;startFill=0;exitX=0.5;exitY=1;exitDx=0;exitDy=0;dashed=1;dashPattern=1 4;" parent="GuQ06bizUJo4DjbWJBar-115" source="GuQ06bizUJo4DjbWJBar-122" target="GuQ06bizUJo4DjbWJBar-117" edge="1">
          <mxGeometry relative="1" as="geometry" />
        </mxCell>
        <mxCell id="GuQ06bizUJo4DjbWJBar-121" style="edgeStyle=orthogonalEdgeStyle;curved=1;orthogonalLoop=1;jettySize=auto;html=1;entryX=0.75;entryY=1;entryDx=0;entryDy=0;startArrow=none;startFill=0;strokeWidth=1;" parent="GuQ06bizUJo4DjbWJBar-115" source="GuQ06bizUJo4DjbWJBar-122" target="GuQ06bizUJo4DjbWJBar-116" edge="1">
          <mxGeometry relative="1" as="geometry" />
        </mxCell>
        <mxCell id="GuQ06bizUJo4DjbWJBar-122" value="&lt;meta charset=&quot;utf-8&quot;&gt;&lt;meta&gt;&lt;meta&gt;&lt;div&gt;&lt;div&gt;Pipelines&lt;/div&gt;&lt;/div&gt;&lt;span&gt;&lt;/span&gt;" style="rounded=1;whiteSpace=wrap;html=1;shadow=0;comic=0;labelBackgroundColor=#FFFFFF;fillColor=#FFFFFF;gradientColor=#ffffff;" parent="GuQ06bizUJo4DjbWJBar-115" vertex="1">
          <mxGeometry x="157.54118050789293" y="151.31578947368422" width="60.63829787234043" height="24.210526315789473" as="geometry" />
        </mxCell>
        <mxCell id="GuQ06bizUJo4DjbWJBar-123" style="edgeStyle=orthogonalEdgeStyle;curved=1;orthogonalLoop=1;jettySize=auto;html=1;entryX=0;entryY=0.5;entryDx=0;entryDy=0;" parent="GuQ06bizUJo4DjbWJBar-115" source="GuQ06bizUJo4DjbWJBar-117" target="GuQ06bizUJo4DjbWJBar-122" edge="1">
          <mxGeometry relative="1" as="geometry" />
        </mxCell>
        <mxCell id="GuQ06bizUJo4DjbWJBar-124" value="&lt;meta charset=&quot;utf-8&quot;&gt;&lt;meta&gt;&lt;meta&gt;&lt;div&gt;&lt;div&gt;Scenes&lt;/div&gt;&lt;/div&gt;&lt;span&gt;&lt;/span&gt;" style="rounded=1;whiteSpace=wrap;html=1;shadow=0;comic=0;labelBackgroundColor=#FFFFFF;fillColor=#FFFFFF;gradientColor=#ffffff;" parent="GuQ06bizUJo4DjbWJBar-115" vertex="1">
          <mxGeometry x="35.20075497597805" y="108.94736842105262" width="53.19148936170213" height="24.210526315789473" as="geometry" />
        </mxCell>
        <mxCell id="GuQ06bizUJo4DjbWJBar-125" style="edgeStyle=orthogonalEdgeStyle;curved=1;orthogonalLoop=1;jettySize=auto;html=1;entryX=0.5;entryY=1;entryDx=0;entryDy=0;" parent="GuQ06bizUJo4DjbWJBar-115" source="GuQ06bizUJo4DjbWJBar-117" target="GuQ06bizUJo4DjbWJBar-124" edge="1">
          <mxGeometry relative="1" as="geometry" />
        </mxCell>
        <mxCell id="GuQ06bizUJo4DjbWJBar-126" style="edgeStyle=orthogonalEdgeStyle;curved=1;orthogonalLoop=1;jettySize=auto;html=1;entryX=0.5;entryY=0;entryDx=0;entryDy=0;dashed=1;strokeWidth=1;" parent="GuQ06bizUJo4DjbWJBar-115" source="GuQ06bizUJo4DjbWJBar-119" target="GuQ06bizUJo4DjbWJBar-124" edge="1">
          <mxGeometry relative="1" as="geometry" />
        </mxCell>
        <mxCell id="GuQ06bizUJo4DjbWJBar-127" style="edgeStyle=orthogonalEdgeStyle;curved=1;orthogonalLoop=1;jettySize=auto;html=1;entryX=1;entryY=0.5;entryDx=0;entryDy=0;dashed=1;dashPattern=1 4;startArrow=none;startFill=0;strokeWidth=3;" parent="GuQ06bizUJo4DjbWJBar-115" source="GuQ06bizUJo4DjbWJBar-122" target="GuQ06bizUJo4DjbWJBar-124" edge="1">
          <mxGeometry relative="1" as="geometry" />
        </mxCell>
        <mxCell id="GuQ06bizUJo4DjbWJBar-128" value="&lt;meta charset=&quot;utf-8&quot;&gt;&lt;meta&gt;&lt;meta&gt;&lt;div&gt;&lt;div&gt;Extracts&lt;/div&gt;&lt;/div&gt;&lt;span&gt;&lt;/span&gt;" style="rounded=1;whiteSpace=wrap;html=1;shadow=0;comic=0;labelBackgroundColor=#FFFFFF;fillColor=#FFFFFF;gradientColor=#ffffff;" parent="GuQ06bizUJo4DjbWJBar-115" vertex="1">
          <mxGeometry x="178.81777625257374" y="69.60526315789477" width="53.19148936170213" height="24.210526315789473" as="geometry" />
        </mxCell>
        <mxCell id="GuQ06bizUJo4DjbWJBar-129" style="edgeStyle=orthogonalEdgeStyle;orthogonalLoop=1;jettySize=auto;html=1;entryX=1;entryY=0.5;entryDx=0;entryDy=0;curved=1;exitX=1;exitY=1;exitDx=0;exitDy=0;" parent="GuQ06bizUJo4DjbWJBar-115" source="GuQ06bizUJo4DjbWJBar-117" target="GuQ06bizUJo4DjbWJBar-128" edge="1">
          <mxGeometry relative="1" as="geometry">
            <mxPoint x="99.03054221002061" y="202.76315789473682" as="sourcePoint" />
            <mxPoint x="242.6475634866163" y="121.05263157894738" as="targetPoint" />
            <Array as="points">
              <mxPoint x="88.39224433768015" y="202.76315789473682" />
              <mxPoint x="247.9667124227866" y="202.76315789473682" />
              <mxPoint x="247.9667124227866" y="81.71052631578944" />
            </Array>
          </mxGeometry>
        </mxCell>
        <mxCell id="GuQ06bizUJo4DjbWJBar-130" style="orthogonalLoop=1;jettySize=auto;html=1;entryX=1;entryY=0.25;entryDx=0;entryDy=0;exitX=0.5;exitY=1;exitDx=0;exitDy=0;" parent="GuQ06bizUJo4DjbWJBar-115" source="GuQ06bizUJo4DjbWJBar-133" target="GuQ06bizUJo4DjbWJBar-124" edge="1">
          <mxGeometry relative="1" as="geometry" />
        </mxCell>
        <mxCell id="GuQ06bizUJo4DjbWJBar-131" style="orthogonalLoop=1;jettySize=auto;html=1;entryX=0;entryY=0;entryDx=0;entryDy=0;exitX=0.5;exitY=1;exitDx=0;exitDy=0;" parent="GuQ06bizUJo4DjbWJBar-115" source="GuQ06bizUJo4DjbWJBar-133" target="GuQ06bizUJo4DjbWJBar-122" edge="1">
          <mxGeometry relative="1" as="geometry" />
        </mxCell>
        <mxCell id="GuQ06bizUJo4DjbWJBar-132" style="orthogonalLoop=1;jettySize=auto;html=1;entryX=0.92;entryY=0.025;entryDx=0;entryDy=0;entryPerimeter=0;exitX=0.5;exitY=1;exitDx=0;exitDy=0;" parent="GuQ06bizUJo4DjbWJBar-115" source="GuQ06bizUJo4DjbWJBar-133" target="GuQ06bizUJo4DjbWJBar-117" edge="1">
          <mxGeometry relative="1" as="geometry" />
        </mxCell>
        <mxCell id="GuQ06bizUJo4DjbWJBar-133" value="&lt;meta /&gt;&lt;meta /&gt;&lt;meta /&gt;&lt;div&gt;&lt;div&gt;Data&lt;/div&gt;&lt;/div&gt;&lt;span&gt;&lt;/span&gt;" style="rounded=1;whiteSpace=wrap;html=1;shadow=0;comic=0;labelBackgroundColor=#FFFFFF;fillColor=#FFFFFF;gradientColor=#ffffff;" parent="GuQ06bizUJo4DjbWJBar-115" vertex="1">
          <mxGeometry x="104.34969114619078" y="48.42105263157897" width="53.19148936170213" height="24.210526315789473" as="geometry" />
        </mxCell>
        <mxCell id="GuQ06bizUJo4DjbWJBar-134" style="edgeStyle=orthogonalEdgeStyle;curved=1;orthogonalLoop=1;jettySize=auto;html=1;entryX=0.5;entryY=0;entryDx=0;entryDy=0;dashed=1;strokeWidth=1;" parent="GuQ06bizUJo4DjbWJBar-115" source="GuQ06bizUJo4DjbWJBar-119" target="GuQ06bizUJo4DjbWJBar-128" edge="1">
          <mxGeometry relative="1" as="geometry">
            <Array as="points">
              <mxPoint x="56.47735072065887" y="30.26315789473682" />
              <mxPoint x="136.2645847632121" y="30.26315789473682" />
              <mxPoint x="136.2645847632121" y="24.21052631578944" />
              <mxPoint x="205.41352093342482" y="24.21052631578944" />
            </Array>
          </mxGeometry>
        </mxCell>
        <mxCell id="GuQ06bizUJo4DjbWJBar-135" style="edgeStyle=orthogonalEdgeStyle;curved=1;orthogonalLoop=1;jettySize=auto;html=1;entryX=0.75;entryY=1;entryDx=0;entryDy=0;exitX=0.43;exitY=1.05;exitDx=0;exitDy=0;exitPerimeter=0;" parent="GuQ06bizUJo4DjbWJBar-115" source="GuQ06bizUJo4DjbWJBar-117" target="GuQ06bizUJo4DjbWJBar-117" edge="1">
          <mxGeometry relative="1" as="geometry">
            <Array as="points">
              <mxPoint x="58.073095401509946" y="187.6315789473684" />
              <mxPoint x="75.09437199725461" y="187.6315789473684" />
            </Array>
          </mxGeometry>
        </mxCell>
        <mxCell id="GuQ06bizUJo4DjbWJBar-136" style="edgeStyle=orthogonalEdgeStyle;curved=1;orthogonalLoop=1;jettySize=auto;html=1;entryX=0;entryY=0.25;entryDx=0;entryDy=0;dashed=1;dashPattern=1 4;startArrow=none;startFill=0;strokeWidth=3;" parent="GuQ06bizUJo4DjbWJBar-115" source="GuQ06bizUJo4DjbWJBar-122" target="GuQ06bizUJo4DjbWJBar-128" edge="1">
          <mxGeometry relative="1" as="geometry">
            <Array as="points">
              <mxPoint x="173.4986273164036" y="122.8684210526316" />
              <mxPoint x="157.54118050789293" y="122.8684210526316" />
              <mxPoint x="157.54118050789293" y="75.65789473684214" />
            </Array>
          </mxGeometry>
        </mxCell>
        <mxCell id="GuQ06bizUJo4DjbWJBar-137" style="edgeStyle=orthogonalEdgeStyle;curved=1;orthogonalLoop=1;jettySize=auto;html=1;entryX=0.904;entryY=1.063;entryDx=0;entryDy=0;entryPerimeter=0;dashed=1;dashPattern=1 4;startArrow=none;startFill=0;strokeWidth=3;" parent="GuQ06bizUJo4DjbWJBar-115" source="GuQ06bizUJo4DjbWJBar-122" target="GuQ06bizUJo4DjbWJBar-122" edge="1">
          <mxGeometry relative="1" as="geometry">
            <Array as="points">
              <mxPoint x="187.86032944406313" y="187.6315789473684" />
              <mxPoint x="212.32841455044607" y="187.6315789473684" />
            </Array>
          </mxGeometry>
        </mxCell>
        <mxCell id="GuQ06bizUJo4DjbWJBar-138" value="" style="rounded=1;arcSize=10;dashed=1;strokeColor=#000000;fillColor=none;gradientColor=none;dashPattern=8 3 1 3;strokeWidth=2;" parent="GuQ06bizUJo4DjbWJBar-115" vertex="1">
          <mxGeometry width="250" height="230" as="geometry" />
        </mxCell>
        <mxCell id="GuQ06bizUJo4DjbWJBar-139" value="Graph" style="text;html=1;strokeColor=none;fillColor=none;align=center;verticalAlign=middle;whiteSpace=wrap;rounded=0;" parent="GuQ06bizUJo4DjbWJBar-115" vertex="1">
          <mxGeometry x="24.562457103637588" y="199.73684210526318" width="21.27659574468085" height="12.105263157894736" as="geometry" />
        </mxCell>
        <mxCell id="GuQ06bizUJo4DjbWJBar-142" value="执行层" style="text;strokeColor=none;fillColor=none;align=left;verticalAlign=middle;spacingLeft=4;spacingRight=4;overflow=hidden;points=[[0,0.5],[1,0.5]];portConstraint=eastwest;rotatable=0;whiteSpace=wrap;html=1;dashed=1;" parent="1" vertex="1">
          <mxGeometry x="30" y="690" width="80" height="30" as="geometry" />
        </mxCell>
        <mxCell id="GuQ06bizUJo4DjbWJBar-143" value="tupian" style="rounded=1;whiteSpace=wrap;html=1;dashed=1;" parent="1" vertex="1">
          <mxGeometry x="100" y="850" width="120" height="60" as="geometry" />
        </mxCell>
        <mxCell id="GuQ06bizUJo4DjbWJBar-144" value="Data" style="rounded=1;whiteSpace=wrap;html=1;dashed=1;" parent="1" vertex="1">
          <mxGeometry x="510" y="850" width="120" height="60" as="geometry" />
        </mxCell>
        <mxCell id="GuQ06bizUJo4DjbWJBar-146" value="输出层" style="text;strokeColor=none;fillColor=none;align=left;verticalAlign=middle;spacingLeft=4;spacingRight=4;overflow=hidden;points=[[0,0.5],[1,0.5]];portConstraint=eastwest;rotatable=0;whiteSpace=wrap;html=1;dashed=1;" parent="1" vertex="1">
          <mxGeometry x="20" y="900" width="80" height="30" as="geometry" />
        </mxCell>
        <mxCell id="GuQ06bizUJo4DjbWJBar-147" value="" style="shape=flexArrow;endArrow=classic;html=1;rounded=0;" parent="1" edge="1">
          <mxGeometry width="50" height="50" relative="1" as="geometry">
            <mxPoint x="-80" y="580" as="sourcePoint" />
            <mxPoint x="-10" y="580" as="targetPoint" />
          </mxGeometry>
        </mxCell>
        <mxCell id="GuQ06bizUJo4DjbWJBar-149" value="" style="endArrow=none;dashed=1;html=1;dashPattern=1 3;strokeWidth=2;rounded=0;" parent="1" edge="1">
          <mxGeometry width="50" height="50" relative="1" as="geometry">
            <mxPoint x="100" y="770" as="sourcePoint" />
            <mxPoint x="100" y="40" as="targetPoint" />
          </mxGeometry>
        </mxCell>
        <mxCell id="GuQ06bizUJo4DjbWJBar-150" value="" style="endArrow=none;dashed=1;html=1;dashPattern=1 3;strokeWidth=2;rounded=0;" parent="1" edge="1">
          <mxGeometry width="50" height="50" relative="1" as="geometry">
            <mxPoint x="100" y="40" as="sourcePoint" />
            <mxPoint x="340" y="40" as="targetPoint" />
          </mxGeometry>
        </mxCell>
        <mxCell id="GuQ06bizUJo4DjbWJBar-151" value="" style="endArrow=none;dashed=1;html=1;dashPattern=1 3;strokeWidth=2;rounded=0;" parent="1" edge="1">
          <mxGeometry width="50" height="50" relative="1" as="geometry">
            <mxPoint x="340" y="770" as="sourcePoint" />
            <mxPoint x="340" y="40" as="targetPoint" />
          </mxGeometry>
        </mxCell>
        <mxCell id="GuQ06bizUJo4DjbWJBar-152" value="" style="endArrow=none;dashed=1;html=1;dashPattern=1 3;strokeWidth=2;rounded=0;" parent="1" edge="1">
          <mxGeometry width="50" height="50" relative="1" as="geometry">
            <mxPoint x="100" y="770" as="sourcePoint" />
            <mxPoint x="340" y="770" as="targetPoint" />
          </mxGeometry>
        </mxCell>
        <mxCell id="GuQ06bizUJo4DjbWJBar-153" value="进程1" style="text;strokeColor=none;fillColor=none;align=left;verticalAlign=middle;spacingLeft=4;spacingRight=4;overflow=hidden;points=[[0,0.5],[1,0.5]];portConstraint=eastwest;rotatable=0;whiteSpace=wrap;html=1;dashed=1;" parent="1" vertex="1">
          <mxGeometry x="110" y="50" width="80" height="30" as="geometry" />
        </mxCell>
        <mxCell id="GuQ06bizUJo4DjbWJBar-154" value="" style="endArrow=none;dashed=1;html=1;dashPattern=1 3;strokeWidth=2;rounded=0;" parent="1" edge="1">
          <mxGeometry width="50" height="50" relative="1" as="geometry">
            <mxPoint x="440" y="40" as="sourcePoint" />
            <mxPoint x="680" y="40" as="targetPoint" />
          </mxGeometry>
        </mxCell>
        <mxCell id="GuQ06bizUJo4DjbWJBar-155" value="" style="endArrow=none;dashed=1;html=1;dashPattern=1 3;strokeWidth=2;rounded=0;" parent="1" edge="1">
          <mxGeometry width="50" height="50" relative="1" as="geometry">
            <mxPoint x="670" y="770" as="sourcePoint" />
            <mxPoint x="670" y="40" as="targetPoint" />
          </mxGeometry>
        </mxCell>
        <mxCell id="GuQ06bizUJo4DjbWJBar-156" value="" style="endArrow=none;dashed=1;html=1;dashPattern=1 3;strokeWidth=2;rounded=0;" parent="1" edge="1">
          <mxGeometry width="50" height="50" relative="1" as="geometry">
            <mxPoint x="439.40999999999997" y="770" as="sourcePoint" />
            <mxPoint x="439.40999999999997" y="40" as="targetPoint" />
          </mxGeometry>
        </mxCell>
        <mxCell id="GuQ06bizUJo4DjbWJBar-157" value="" style="endArrow=none;dashed=1;html=1;dashPattern=1 3;strokeWidth=2;rounded=0;" parent="1" edge="1">
          <mxGeometry width="50" height="50" relative="1" as="geometry">
            <mxPoint x="440" y="770" as="sourcePoint" />
            <mxPoint x="680" y="770" as="targetPoint" />
          </mxGeometry>
        </mxCell>
        <mxCell id="GuQ06bizUJo4DjbWJBar-158" value="进程n" style="text;strokeColor=none;fillColor=none;align=left;verticalAlign=middle;spacingLeft=4;spacingRight=4;overflow=hidden;points=[[0,0.5],[1,0.5]];portConstraint=eastwest;rotatable=0;whiteSpace=wrap;html=1;dashed=1;" parent="1" vertex="1">
          <mxGeometry x="590" y="40" width="80" height="30" as="geometry" />
        </mxCell>
        <mxCell id="GuQ06bizUJo4DjbWJBar-159" value="DFD" style="rounded=1;whiteSpace=wrap;html=1;dashed=1;" parent="1" vertex="1">
          <mxGeometry x="310" y="850" width="120" height="60" as="geometry" />
        </mxCell>
        <mxCell id="GuQ06bizUJo4DjbWJBar-161" value="" style="endArrow=classic;html=1;rounded=0;exitX=0.46;exitY=1.02;exitDx=0;exitDy=0;exitPerimeter=0;entryX=0.5;entryY=0;entryDx=0;entryDy=0;" parent="1" source="GuQ06bizUJo4DjbWJBar-78" target="GuQ06bizUJo4DjbWJBar-143" edge="1">
          <mxGeometry width="50" height="50" relative="1" as="geometry">
            <mxPoint x="960" y="830" as="sourcePoint" />
            <mxPoint x="1070" y="820" as="targetPoint" />
          </mxGeometry>
        </mxCell>
        <mxCell id="GuQ06bizUJo4DjbWJBar-162" style="rounded=0;orthogonalLoop=1;jettySize=auto;html=1;exitX=0.5;exitY=1;exitDx=0;exitDy=0;" parent="1" source="GuQ06bizUJo4DjbWJBar-138" edge="1">
          <mxGeometry relative="1" as="geometry">
            <mxPoint x="160" y="850.0000000000002" as="targetPoint" />
          </mxGeometry>
        </mxCell>
        <mxCell id="GuQ06bizUJo4DjbWJBar-163" style="edgeStyle=none;rounded=0;orthogonalLoop=1;jettySize=auto;html=1;entryX=0.5;entryY=0;entryDx=0;entryDy=0;" parent="1" source="GuQ06bizUJo4DjbWJBar-78" target="GuQ06bizUJo4DjbWJBar-159" edge="1">
          <mxGeometry relative="1" as="geometry" />
        </mxCell>
        <mxCell id="GuQ06bizUJo4DjbWJBar-164" style="edgeStyle=none;rounded=0;orthogonalLoop=1;jettySize=auto;html=1;entryX=0.5;entryY=0;entryDx=0;entryDy=0;" parent="1" source="GuQ06bizUJo4DjbWJBar-138" target="GuQ06bizUJo4DjbWJBar-144" edge="1">
          <mxGeometry relative="1" as="geometry" />
        </mxCell>
        <mxCell id="GuQ06bizUJo4DjbWJBar-165" style="edgeStyle=none;rounded=0;orthogonalLoop=1;jettySize=auto;html=1;entryX=0.5;entryY=0;entryDx=0;entryDy=0;" parent="1" target="GuQ06bizUJo4DjbWJBar-78" edge="1">
          <mxGeometry relative="1" as="geometry">
            <mxPoint x="245" y="290" as="sourcePoint" />
          </mxGeometry>
        </mxCell>
        <mxCell id="GuQ06bizUJo4DjbWJBar-166" style="edgeStyle=none;rounded=0;orthogonalLoop=1;jettySize=auto;html=1;entryX=0.5;entryY=0;entryDx=0;entryDy=0;" parent="1" source="GuQ06bizUJo4DjbWJBar-38" target="GuQ06bizUJo4DjbWJBar-138" edge="1">
          <mxGeometry relative="1" as="geometry" />
        </mxCell>
      </root>
    </mxGraphModel>
  </diagram>
</mxfile>
